# xmcd
#
# Track frame offsets:
#	150
#	17401
#	30775
#	44017
#	62299
#	88780
#	106511
#	124551
#	134468
#	154987
#
# Disc length: 2492 seconds
#
# Revision: 1
# Processed by: cddbd v1.5.2PL0 Copyright (c) Steve Scherf et al.
# Submitted via: audiograbber 1.83.01
#
DISCID=6e09ba0a
DTITLE=Sturgill Simpson - SOUND and FURY
DYEAR=2019
DGENRE=Country
TTITLE0=Ronin
TTITLE1=Remember To Breathe
TTITLE2=Sing Along
TTITLE3=A Good Look
TTITLE4=Make Art Not Friends
TTITLE5=Best Clockmaker On Mars
TTITLE6=All Said And Done
TTITLE7=Last Man Standing
TTITLE8=Mercury In Retrograde
TTITLE9=Fastest Horse In Town
EXTD=
EXTT0=
EXTT1=
EXTT2=
EXTT3=
EXTT4=
EXTT5=
EXTT6=
EXTT7=
EXTT8=
EXTT9=
PLAYORDER=
